<?xml version="1.0" standalone="no"?>
<!DOCTYPE svg PUBLIC "-//W3C//DTD SVG 20010904//EN"
 "http://www.w3.org/TR/2001/REC-SVG-20010904/DTD/svg10.dtd">
<svg version="1.0" xmlns="http://www.w3.org/2000/svg"
 width="512.000000pt" height="512.000000pt" viewBox="0 0 512.000000 512.000000"
 preserveAspectRatio="xMidYMid meet">

<g transform="translate(0.000000,512.000000) scale(0.100000,-0.100000)"
fill="#000000" stroke="none">
<path d="M2067 4149 c-72 -17 -103 -42 -332 -270 l-230 -228 -385 -3 -385 -3
-55 -26 c-80 -37 -125 -81 -162 -157 l-33 -67 0 -1090 0 -1090 26 -56 c34 -72
96 -134 168 -168 l56 -26 1825 0 1825 0 56 26 c72 34 134 96 168 168 l26 56 0
1090 0 1090 -33 67 c-37 76 -82 120 -162 157 l-55 26 -380 3 -380 3 -220 224
c-187 191 -229 229 -280 252 l-60 28 -480 2 c-264 1 -497 -3 -518 -8z m2249
-774 c87 -57 83 -194 -8 -241 -100 -52 -216 24 -205 135 11 106 126 163 213
106z m-1538 -85 c166 -40 322 -131 443 -257 126 -133 192 -250 235 -422 29
-114 33 -290 8 -409 -73 -353 -359 -640 -717 -718 -94 -21 -280 -21 -374 0
-301 66 -549 274 -666 557 -54 130 -70 226 -64 387 5 149 18 211 70 332 44
101 97 180 186 273 227 237 558 334 879 257z"/>
<path d="M2415 3074 c-38 -8 -112 -35 -164 -60 -170 -83 -304 -241 -359 -429
-30 -102 -34 -266 -8 -365 83 -313 355 -524 676 -524 218 0 406 90 543 259
102 126 150 268 149 440 0 199 -64 349 -207 492 -68 67 -99 89 -176 127 -152
73 -299 92 -454 60z"/>
</g>
</svg>
